<svg xmlns="http://www.w3.org/2000/svg" version="1.1" xmlns:xlink="http://www.w3.org/1999/xlink" xmlns:svgjs="http://svgjs.dev/svgjs" width="1440" height="560" preserveAspectRatio="none" viewBox="0 0 1440 560"><g mask="url(&quot;#SvgjsMask1001&quot;)" fill="none"><path d="M40.12 157.83L105.07 195.33L105.07 270.33L40.12 307.83L-24.83 270.33L-24.83 195.33zM234.98 45.33L299.94 82.83L299.94 157.83L234.98 195.33L170.03 157.83L170.03 82.83zM170.03 157.83L234.98 195.33L234.98 270.33L170.03 307.83L105.07 270.33L105.07 195.33zM234.98 270.33L299.94 307.83L299.94 382.83L234.98 420.33L170.03 382.83L170.03 307.83zM170.03 382.83L234.98 420.33L234.98 495.33L170.03 532.83L105.07 495.33L105.07 420.33zM234.98 495.33L299.94 532.83L299.94 607.83L234.98 645.33L170.03 607.83L170.03 532.83zM299.94 -67.17L364.89 -29.67L364.89 45.33L299.94 82.83L234.98 45.33L234.98 -29.67zM364.89 45.33L429.84 82.83L429.84 157.83L364.89 195.33L299.94 157.83L299.94 82.83zM299.94 382.83L364.89 420.33L364.89 495.33L299.94 532.83L234.98 495.33L234.98 420.33zM364.89 495.33L429.84 532.83L429.84 607.83L364.89 645.33L299.94 607.83L299.94 532.83zM494.8 45.33L559.75 82.83L559.75 157.83L494.8 195.33L429.84 157.83L429.84 82.83zM429.84 382.83L494.8 420.33L494.8 495.33L429.84 532.83L364.89 495.33L364.89 420.33zM494.8 495.33L559.75 532.83L559.75 607.83L494.8 645.33L429.84 607.83L429.84 532.83zM624.7 45.33L689.66 82.83L689.66 157.83L624.7 195.33L559.75 157.83L559.75 82.83zM624.7 270.33L689.66 307.83L689.66 382.83L624.7 420.33L559.75 382.83L559.75 307.83zM559.75 382.83L624.7 420.33L624.7 495.33L559.75 532.83L494.8 495.33L494.8 420.33zM624.7 495.33L689.66 532.83L689.66 607.83L624.7 645.33L559.75 607.83L559.75 532.83zM754.61 45.33L819.57 82.83L819.57 157.83L754.61 195.33L689.66 157.83L689.66 82.83zM689.66 157.83L754.61 195.33L754.61 270.33L689.66 307.83L624.7 270.33L624.7 195.33zM754.61 270.33L819.57 307.83L819.57 382.83L754.61 420.33L689.66 382.83L689.66 307.83zM819.56 157.83L884.52 195.33L884.52 270.33L819.56 307.83L754.61 270.33L754.61 195.33zM884.52 270.33L949.47 307.83L949.47 382.83L884.52 420.33L819.56 382.83L819.56 307.83zM884.52 495.33L949.47 532.83L949.47 607.83L884.52 645.33L819.56 607.83L819.56 532.83zM949.47 -67.17L1014.43 -29.67L1014.43 45.33L949.47 82.83L884.52 45.33L884.52 -29.67zM1014.43 495.33L1079.38 532.83L1079.38 607.83L1014.43 645.33L949.47 607.83L949.47 532.83zM1144.33 45.33L1209.29 82.83L1209.29 157.83L1144.33 195.33L1079.38 157.83L1079.38 82.83zM1144.33 495.33L1209.29 532.83L1209.29 607.83L1144.33 645.33L1079.38 607.83L1079.38 532.83zM1209.29 -67.17L1274.24 -29.67L1274.24 45.33L1209.29 82.83L1144.33 45.33L1144.33 -29.67zM1209.29 157.83L1274.24 195.33L1274.24 270.33L1209.29 307.83L1144.33 270.33L1144.33 195.33zM1209.29 382.83L1274.24 420.33L1274.24 495.33L1209.29 532.83L1144.33 495.33L1144.33 420.33zM1404.15 45.33L1469.1 82.83L1469.1 157.83L1404.15 195.33L1339.19 157.83L1339.19 82.83zM1339.19 157.83L1404.15 195.33L1404.15 270.33L1339.19 307.83L1274.24 270.33L1274.24 195.33z" stroke="#03305d" stroke-width="2"></path><path d="M32.62 157.83 a7.5 7.5 0 1 0 15 0 a7.5 7.5 0 1 0 -15 0zM97.57 195.33 a7.5 7.5 0 1 0 15 0 a7.5 7.5 0 1 0 -15 0zM97.57 270.33 a7.5 7.5 0 1 0 15 0 a7.5 7.5 0 1 0 -15 0zM32.62 307.83 a7.5 7.5 0 1 0 15 0 a7.5 7.5 0 1 0 -15 0zM-32.33 270.33 a7.5 7.5 0 1 0 15 0 a7.5 7.5 0 1 0 -15 0zM-32.33 195.33 a7.5 7.5 0 1 0 15 0 a7.5 7.5 0 1 0 -15 0zM227.48 45.33 a7.5 7.5 0 1 0 15 0 a7.5 7.5 0 1 0 -15 0zM292.44 82.83 a7.5 7.5 0 1 0 15 0 a7.5 7.5 0 1 0 -15 0zM292.44 157.83 a7.5 7.5 0 1 0 15 0 a7.5 7.5 0 1 0 -15 0zM227.48 195.33 a7.5 7.5 0 1 0 15 0 a7.5 7.5 0 1 0 -15 0zM162.53 157.83 a7.5 7.5 0 1 0 15 0 a7.5 7.5 0 1 0 -15 0zM162.53 82.83 a7.5 7.5 0 1 0 15 0 a7.5 7.5 0 1 0 -15 0zM227.48 270.33 a7.5 7.5 0 1 0 15 0 a7.5 7.5 0 1 0 -15 0zM162.53 307.83 a7.5 7.5 0 1 0 15 0 a7.5 7.5 0 1 0 -15 0zM292.44 307.83 a7.5 7.5 0 1 0 15 0 a7.5 7.5 0 1 0 -15 0zM292.44 382.83 a7.5 7.5 0 1 0 15 0 a7.5 7.5 0 1 0 -15 0zM227.48 420.33 a7.5 7.5 0 1 0 15 0 a7.5 7.5 0 1 0 -15 0zM162.53 382.83 a7.5 7.5 0 1 0 15 0 a7.5 7.5 0 1 0 -15 0zM227.48 495.33 a7.5 7.5 0 1 0 15 0 a7.5 7.5 0 1 0 -15 0zM162.53 532.83 a7.5 7.5 0 1 0 15 0 a7.5 7.5 0 1 0 -15 0zM97.57 495.33 a7.5 7.5 0 1 0 15 0 a7.5 7.5 0 1 0 -15 0zM97.57 420.33 a7.5 7.5 0 1 0 15 0 a7.5 7.5 0 1 0 -15 0zM292.44 532.83 a7.5 7.5 0 1 0 15 0 a7.5 7.5 0 1 0 -15 0zM292.44 607.83 a7.5 7.5 0 1 0 15 0 a7.5 7.5 0 1 0 -15 0zM227.48 645.33 a7.5 7.5 0 1 0 15 0 a7.5 7.5 0 1 0 -15 0zM162.53 607.83 a7.5 7.5 0 1 0 15 0 a7.5 7.5 0 1 0 -15 0zM292.44 -67.17 a7.5 7.5 0 1 0 15 0 a7.5 7.5 0 1 0 -15 0zM357.39 -29.67 a7.5 7.5 0 1 0 15 0 a7.5 7.5 0 1 0 -15 0zM357.39 45.33 a7.5 7.5 0 1 0 15 0 a7.5 7.5 0 1 0 -15 0zM227.48 -29.67 a7.5 7.5 0 1 0 15 0 a7.5 7.5 0 1 0 -15 0zM422.34 82.83 a7.5 7.5 0 1 0 15 0 a7.5 7.5 0 1 0 -15 0zM422.34 157.83 a7.5 7.5 0 1 0 15 0 a7.5 7.5 0 1 0 -15 0zM357.39 195.33 a7.5 7.5 0 1 0 15 0 a7.5 7.5 0 1 0 -15 0zM357.39 420.33 a7.5 7.5 0 1 0 15 0 a7.5 7.5 0 1 0 -15 0zM357.39 495.33 a7.5 7.5 0 1 0 15 0 a7.5 7.5 0 1 0 -15 0zM422.34 532.83 a7.5 7.5 0 1 0 15 0 a7.5 7.5 0 1 0 -15 0zM422.34 607.83 a7.5 7.5 0 1 0 15 0 a7.5 7.5 0 1 0 -15 0zM357.39 645.33 a7.5 7.5 0 1 0 15 0 a7.5 7.5 0 1 0 -15 0zM487.3 45.33 a7.5 7.5 0 1 0 15 0 a7.5 7.5 0 1 0 -15 0zM552.25 82.83 a7.5 7.5 0 1 0 15 0 a7.5 7.5 0 1 0 -15 0zM552.25 157.83 a7.5 7.5 0 1 0 15 0 a7.5 7.5 0 1 0 -15 0zM487.3 195.33 a7.5 7.5 0 1 0 15 0 a7.5 7.5 0 1 0 -15 0zM422.34 382.83 a7.5 7.5 0 1 0 15 0 a7.5 7.5 0 1 0 -15 0zM487.3 420.33 a7.5 7.5 0 1 0 15 0 a7.5 7.5 0 1 0 -15 0zM487.3 495.33 a7.5 7.5 0 1 0 15 0 a7.5 7.5 0 1 0 -15 0zM552.25 532.83 a7.5 7.5 0 1 0 15 0 a7.5 7.5 0 1 0 -15 0zM552.25 607.83 a7.5 7.5 0 1 0 15 0 a7.5 7.5 0 1 0 -15 0zM487.3 645.33 a7.5 7.5 0 1 0 15 0 a7.5 7.5 0 1 0 -15 0zM617.2 45.33 a7.5 7.5 0 1 0 15 0 a7.5 7.5 0 1 0 -15 0zM682.16 82.83 a7.5 7.5 0 1 0 15 0 a7.5 7.5 0 1 0 -15 0zM682.16 157.83 a7.5 7.5 0 1 0 15 0 a7.5 7.5 0 1 0 -15 0zM617.2 195.33 a7.5 7.5 0 1 0 15 0 a7.5 7.5 0 1 0 -15 0zM617.2 270.33 a7.5 7.5 0 1 0 15 0 a7.5 7.5 0 1 0 -15 0zM682.16 307.83 a7.5 7.5 0 1 0 15 0 a7.5 7.5 0 1 0 -15 0zM682.16 382.83 a7.5 7.5 0 1 0 15 0 a7.5 7.5 0 1 0 -15 0zM617.2 420.33 a7.5 7.5 0 1 0 15 0 a7.5 7.5 0 1 0 -15 0zM552.25 382.83 a7.5 7.5 0 1 0 15 0 a7.5 7.5 0 1 0 -15 0zM552.25 307.83 a7.5 7.5 0 1 0 15 0 a7.5 7.5 0 1 0 -15 0zM617.2 495.33 a7.5 7.5 0 1 0 15 0 a7.5 7.5 0 1 0 -15 0zM682.16 532.83 a7.5 7.5 0 1 0 15 0 a7.5 7.5 0 1 0 -15 0zM682.16 607.83 a7.5 7.5 0 1 0 15 0 a7.5 7.5 0 1 0 -15 0zM617.2 645.33 a7.5 7.5 0 1 0 15 0 a7.5 7.5 0 1 0 -15 0zM747.11 45.33 a7.5 7.5 0 1 0 15 0 a7.5 7.5 0 1 0 -15 0zM812.07 82.83 a7.5 7.5 0 1 0 15 0 a7.5 7.5 0 1 0 -15 0zM812.07 157.83 a7.5 7.5 0 1 0 15 0 a7.5 7.5 0 1 0 -15 0zM747.11 195.33 a7.5 7.5 0 1 0 15 0 a7.5 7.5 0 1 0 -15 0zM747.11 270.33 a7.5 7.5 0 1 0 15 0 a7.5 7.5 0 1 0 -15 0zM812.07 307.83 a7.5 7.5 0 1 0 15 0 a7.5 7.5 0 1 0 -15 0zM812.07 382.83 a7.5 7.5 0 1 0 15 0 a7.5 7.5 0 1 0 -15 0zM747.11 420.33 a7.5 7.5 0 1 0 15 0 a7.5 7.5 0 1 0 -15 0zM812.06 157.83 a7.5 7.5 0 1 0 15 0 a7.5 7.5 0 1 0 -15 0zM877.02 195.33 a7.5 7.5 0 1 0 15 0 a7.5 7.5 0 1 0 -15 0zM877.02 270.33 a7.5 7.5 0 1 0 15 0 a7.5 7.5 0 1 0 -15 0zM812.06 307.83 a7.5 7.5 0 1 0 15 0 a7.5 7.5 0 1 0 -15 0zM941.97 307.83 a7.5 7.5 0 1 0 15 0 a7.5 7.5 0 1 0 -15 0zM941.97 382.83 a7.5 7.5 0 1 0 15 0 a7.5 7.5 0 1 0 -15 0zM877.02 420.33 a7.5 7.5 0 1 0 15 0 a7.5 7.5 0 1 0 -15 0zM812.06 382.83 a7.5 7.5 0 1 0 15 0 a7.5 7.5 0 1 0 -15 0zM877.02 495.33 a7.5 7.5 0 1 0 15 0 a7.5 7.5 0 1 0 -15 0zM941.97 532.83 a7.5 7.5 0 1 0 15 0 a7.5 7.5 0 1 0 -15 0zM941.97 607.83 a7.5 7.5 0 1 0 15 0 a7.5 7.5 0 1 0 -15 0zM877.02 645.33 a7.5 7.5 0 1 0 15 0 a7.5 7.5 0 1 0 -15 0zM812.06 607.83 a7.5 7.5 0 1 0 15 0 a7.5 7.5 0 1 0 -15 0zM812.06 532.83 a7.5 7.5 0 1 0 15 0 a7.5 7.5 0 1 0 -15 0zM941.97 -67.17 a7.5 7.5 0 1 0 15 0 a7.5 7.5 0 1 0 -15 0zM1006.93 -29.67 a7.5 7.5 0 1 0 15 0 a7.5 7.5 0 1 0 -15 0zM1006.93 45.33 a7.5 7.5 0 1 0 15 0 a7.5 7.5 0 1 0 -15 0zM941.97 82.83 a7.5 7.5 0 1 0 15 0 a7.5 7.5 0 1 0 -15 0zM877.02 45.33 a7.5 7.5 0 1 0 15 0 a7.5 7.5 0 1 0 -15 0zM877.02 -29.67 a7.5 7.5 0 1 0 15 0 a7.5 7.5 0 1 0 -15 0zM1006.93 495.33 a7.5 7.5 0 1 0 15 0 a7.5 7.5 0 1 0 -15 0zM1071.88 532.83 a7.5 7.5 0 1 0 15 0 a7.5 7.5 0 1 0 -15 0zM1071.88 607.83 a7.5 7.5 0 1 0 15 0 a7.5 7.5 0 1 0 -15 0zM1006.93 645.33 a7.5 7.5 0 1 0 15 0 a7.5 7.5 0 1 0 -15 0zM1136.83 45.33 a7.5 7.5 0 1 0 15 0 a7.5 7.5 0 1 0 -15 0zM1201.79 82.83 a7.5 7.5 0 1 0 15 0 a7.5 7.5 0 1 0 -15 0zM1201.79 157.83 a7.5 7.5 0 1 0 15 0 a7.5 7.5 0 1 0 -15 0zM1136.83 195.33 a7.5 7.5 0 1 0 15 0 a7.5 7.5 0 1 0 -15 0zM1071.88 157.83 a7.5 7.5 0 1 0 15 0 a7.5 7.5 0 1 0 -15 0zM1071.88 82.83 a7.5 7.5 0 1 0 15 0 a7.5 7.5 0 1 0 -15 0zM1136.83 495.33 a7.5 7.5 0 1 0 15 0 a7.5 7.5 0 1 0 -15 0zM1201.79 532.83 a7.5 7.5 0 1 0 15 0 a7.5 7.5 0 1 0 -15 0zM1201.79 607.83 a7.5 7.5 0 1 0 15 0 a7.5 7.5 0 1 0 -15 0zM1136.83 645.33 a7.5 7.5 0 1 0 15 0 a7.5 7.5 0 1 0 -15 0zM1201.79 -67.17 a7.5 7.5 0 1 0 15 0 a7.5 7.5 0 1 0 -15 0zM1266.74 -29.67 a7.5 7.5 0 1 0 15 0 a7.5 7.5 0 1 0 -15 0zM1266.74 45.33 a7.5 7.5 0 1 0 15 0 a7.5 7.5 0 1 0 -15 0zM1136.83 -29.67 a7.5 7.5 0 1 0 15 0 a7.5 7.5 0 1 0 -15 0zM1266.74 195.33 a7.5 7.5 0 1 0 15 0 a7.5 7.5 0 1 0 -15 0zM1266.74 270.33 a7.5 7.5 0 1 0 15 0 a7.5 7.5 0 1 0 -15 0zM1201.79 307.83 a7.5 7.5 0 1 0 15 0 a7.5 7.5 0 1 0 -15 0zM1136.83 270.33 a7.5 7.5 0 1 0 15 0 a7.5 7.5 0 1 0 -15 0zM1201.79 382.83 a7.5 7.5 0 1 0 15 0 a7.5 7.5 0 1 0 -15 0zM1266.74 420.33 a7.5 7.5 0 1 0 15 0 a7.5 7.5 0 1 0 -15 0zM1266.74 495.33 a7.5 7.5 0 1 0 15 0 a7.5 7.5 0 1 0 -15 0zM1136.83 420.33 a7.5 7.5 0 1 0 15 0 a7.5 7.5 0 1 0 -15 0zM1396.65 45.33 a7.5 7.5 0 1 0 15 0 a7.5 7.5 0 1 0 -15 0zM1461.6 82.83 a7.5 7.5 0 1 0 15 0 a7.5 7.5 0 1 0 -15 0zM1461.6 157.83 a7.5 7.5 0 1 0 15 0 a7.5 7.5 0 1 0 -15 0zM1396.65 195.33 a7.5 7.5 0 1 0 15 0 a7.5 7.5 0 1 0 -15 0zM1331.69 157.83 a7.5 7.5 0 1 0 15 0 a7.5 7.5 0 1 0 -15 0zM1331.69 82.83 a7.5 7.5 0 1 0 15 0 a7.5 7.5 0 1 0 -15 0zM1396.65 270.33 a7.5 7.5 0 1 0 15 0 a7.5 7.5 0 1 0 -15 0zM1331.69 307.83 a7.5 7.5 0 1 0 15 0 a7.5 7.5 0 1 0 -15 0z" fill="#03305d"></path><path d="M159.38 512.44L202.68 537.44L202.68 587.44L159.38 612.44L116.08 587.44L116.08 537.44zM289.28 -12.56L332.59 12.44L332.59 62.44L289.28 87.44L245.98 62.44L245.98 12.44zM289.28 437.44L332.59 462.44L332.59 512.44L289.28 537.44L245.98 512.44L245.98 462.44zM592.4 62.44L635.71 87.44L635.71 137.44L592.4 162.44L549.1 137.44L549.1 87.44zM635.71 137.44L679.01 162.44L679.01 212.44L635.71 237.44L592.4 212.44L592.4 162.44zM635.71 287.44L679.01 312.44L679.01 362.44L635.71 387.44L592.4 362.44L592.4 312.44zM722.31 -12.56L765.61 12.44L765.61 62.44L722.31 87.44L679.01 62.44L679.01 12.44zM722.31 137.44L765.61 162.44L765.61 212.44L722.31 237.44L679.01 212.44L679.01 162.44zM722.31 437.44L765.61 462.44L765.61 512.44L722.31 537.44L679.01 512.44L679.01 462.44zM765.61 512.44L808.92 537.44L808.92 587.44L765.61 612.44L722.31 587.44L722.31 537.44zM808.92 -12.56L852.22 12.44L852.22 62.44L808.92 87.44L765.61 62.44L765.61 12.44zM1025.43 62.44L1068.73 87.44L1068.73 137.44L1025.43 162.44L982.13 137.44L982.13 87.44zM1025.43 512.44L1068.73 537.44L1068.73 587.44L1025.43 612.44L982.13 587.44L982.13 537.44zM1112.03 512.44L1155.34 537.44L1155.34 587.44L1112.03 612.44L1068.73 587.44L1068.73 537.44zM1198.64 62.44L1241.94 87.44L1241.94 137.44L1198.64 162.44L1155.34 137.44L1155.34 87.44zM1285.24 62.44L1328.55 87.44L1328.55 137.44L1285.24 162.44L1241.94 137.44L1241.94 87.44zM1241.94 137.44L1285.24 162.44L1285.24 212.44L1241.94 237.44L1198.64 212.44L1198.64 162.44z" stroke="rgba(6, 80, 156, 0.93)" stroke-width="2"></path></g><defs><mask id="SvgjsMask1001"><rect width="1440" height="560" fill="#ffffff"></rect></mask></defs></svg>