<svg xmlns="http://www.w3.org/2000/svg" version="1.1" xmlns:xlink="http://www.w3.org/1999/xlink" xmlns:svgjs="http://svgjs.dev/svgjs" width="1440" height="350" preserveAspectRatio="none" viewBox="0 0 1440 350"><g mask="url(&quot;#SvgjsMask1033&quot;)" fill="none"><path d="M3 350L353 0L669.5 0L319.5 350z" fill="url(&quot;#SvgjsLinearGradient1034&quot;)"></path><path d="M276.6 350L626.6 0L772.1 0L422.1 350z" fill="url(&quot;#SvgjsLinearGradient1034&quot;)"></path><path d="M500.20000000000005 350L850.2 0L895.2 0L545.2 350z" fill="url(&quot;#SvgjsLinearGradient1034&quot;)"></path><path d="M728.8000000000001 350L1078.8000000000002 0L1243.8000000000002 0L893.8000000000001 350z" fill="url(&quot;#SvgjsLinearGradient1034&quot;)"></path><path d="M1409 350L1059 0L750 0L1100 350z" fill="url(&quot;#SvgjsLinearGradient1035&quot;)"></path><path d="M1169.4 350L819.4000000000001 0L474.4000000000001 0L824.4000000000001 350z" fill="url(&quot;#SvgjsLinearGradient1035&quot;)"></path><path d="M920.8 350L570.8 0L357.79999999999995 0L707.8 350z" fill="url(&quot;#SvgjsLinearGradient1035&quot;)"></path><path d="M715.1999999999999 350L365.19999999999993 0L320.19999999999993 0L670.1999999999999 350z" fill="url(&quot;#SvgjsLinearGradient1035&quot;)"></path><path d="M1226.2092879302302 350L1440 136.20928793023015L1440 350z" fill="url(&quot;#SvgjsLinearGradient1034&quot;)"></path><path d="M0 350L213.79071206976985 350L 0 136.20928793023015z" fill="url(&quot;#SvgjsLinearGradient1035&quot;)"></path></g><defs><mask id="SvgjsMask1033"><rect width="1440" height="350" fill="#ffffff"></rect></mask><linearGradient x1="0%" y1="100%" x2="100%" y2="0%" id="SvgjsLinearGradient1034"><stop stop-color="rgba(15, 70, 185, 0.2)" offset="0"></stop><stop stop-opacity="0" stop-color="rgba(15, 70, 185, 0.2)" offset="0.66"></stop></linearGradient><linearGradient x1="100%" y1="100%" x2="0%" y2="0%" id="SvgjsLinearGradient1035"><stop stop-color="rgba(15, 70, 185, 0.2)" offset="0"></stop><stop stop-opacity="0" stop-color="rgba(15, 70, 185, 0.2)" offset="0.66"></stop></linearGradient></defs></svg>